<svg xmlns="http://www.w3.org/2000/svg" viewBox="0 0 60 43">
  <path
     style="fill:#251313"
     d="m 13.478,255.32 a 13.235,9.274 0 0 0 -5.064,-0.708 13.235,9.274 0 0 0 -12.07,5.501 3.97,5.3 14.95 0 0 -0.406,-0.14 3.97,5.3 14.95 0 0 -3.133,0.789 7.941,6.624 -180 0 0 -6.834,-3.277 7.941,6.624 -180 0 0 -7.255,3.942 6.623,9.267 59.924 0 0 -9.37,0.784 6.623,9.267 59.924 0 0 -4.714,10.374 6.623,9.267 59.924 0 0 11.333,1.1 6.623,9.267 59.924 0 0 4.6,-4.742 7.941,6.624 -180 0 0 5.405,1.79 7.941,6.624 -180 0 0 5.442,-1.8 3.97,5.3 14.95 0 0 1.786,1.277 3.97,5.3 14.95 0 0 3.893,-1.542 13.235,9.274 0 0 0 11.322,4.493 13.235,9.274 0 0 0 13.237,-9.275 13.235,9.274 0 0 0 -8.172,-8.566 z"
     transform="matrix(0.96585351,-0.25908877,0.25853248,0.96600274,-29.359115,-243.14413)" />
  <path
     style="fill:none;stroke:#251313;stroke-width:1px"
     d="m 48.924,258.588 -5.71,-7.337 -13.195,12.18"
     transform="translate(-29.358784,-243.14464)" />
  <path
     style="fill:none;stroke:#251313;stroke-width:1px"
     d="m 51.45,256.403 -4.68,-11.337 -17.218,7.214"
     transform="translate(-29.358784,-243.14464)" />
  <path
     style="fill:none;stroke:#251313;stroke-width:1px"
     d="m 56.41,254.435 -1.225,-6.303 -8.686,2.494 m 10.94,13.272 4.398,-4.31 9.733,20.05"
     transform="translate(-29.358784,-243.14464)" />
  <path
     style="fill:none;stroke:#251313;stroke-width:1px"
     d="m 59.966,262.586 8.516,-4.122 10.294,18.736 m -25.829,-12.366 3.93,-2.998 -1.59,23.61"
     transform="translate(-29.358784,-243.14464)" />
</svg>
