<svg xmlns="http://www.w3.org/2000/svg" viewBox="0 0 64 120">
  <path
     style="fill:#232326;stroke-width:1"
     d="m 347.326,25.105 c -18.541,0 -32,7.059 -32,7.059 v 105.882 c 0,0 13.459,7.06 32,7.06 18.541,0 32,-7.06 32,-7.06 v -105.882 c 0,0 -13.459,-7.059 -32,-7.059 z"
     transform="matrix(1,0,0,0.99999167,-315.326,-25.104791)" />
  <circle
     style="fill:#000000"
     cx="347.32599"
     cy="58.791"
     r="22"
     transform="translate(-315.326,-25.105)" />
  <circle
     style="fill:#232326"
     cx="347.32599"
     cy="60.791"
     r="20"
     transform="translate(-315.326,-25.105)" />
  <circle
     style="fill:#000000"
     cx="347.32599"
     cy="107.418"
     r="22"
     transform="translate(-315.326,-25.105)" />
  <circle
     style="fill:#232326"
     cx="347.32599"
     cy="109.418"
     r="20"
     transform="translate(-315.326,-25.105)" />
  <path
     style="fill:#bb1f11"
     d="m 347.326,43.541 a 2.5,2.5 0 0 0 -2.5,2.5 2.5,2.5 0 0 0 2.5,2.5 2.5,2.5 0 0 0 2.5,-2.5 2.5,2.5 0 0 0 -2.5,-2.5 z m -3.5,6 a 2,2 0 0 0 -1.414,0.586 2,2 0 0 0 -0.586,1.414 v 9 a 2,2 0 0 0 0.586,1.414 2,2 0 0 0 1.414,0.586 v -9 h 1 v 9 h 5 v -9 h 1 v 9 a 2,2 0 0 0 1.414,-0.586 2,2 0 0 0 0.586,-1.414 v -9 a 2,2 0 0 0 -0.586,-1.414 2,2 0 0 0 -1.414,-0.586 z m 0,14 v 13 a 1.5,1.5 0 0 0 1.5,1.5 1.5,1.5 0 0 0 1.5,-1.5 v -10 h 1 v 10 a 1.5,1.5 0 0 0 1.5,1.5 1.5,1.5 0 0 0 1.5,-1.5 v -13 h -4 z"
     transform="translate(-315.326,-25.105)" />
  <path
     style="fill:#008351"
     d="m 347.326,93.237 a 2.5,2.5 0 0 0 -2.5,2.5 2.5,2.5 0 0 0 2.5,2.5 2.5,2.5 0 0 0 2.5,-2.5 2.5,2.5 0 0 0 -2.5,-2.5 z m 0,6 a 2.5,2.5 0 0 0 -2.052,1.08 l -0.004,-0.002 -5.162,7.373 -1.147,1.639 a 2,2 0 0 0 1.494,0.33 2,2 0 0 0 1.291,-0.823 l 3.08,-4.398 v 5.3 h 5 v -6.173 l 2.664,2.664 v 4.172 a 2,2 0 0 0 1.414,-0.586 2,2 0 0 0 0.586,-1.414 v -3 l -5.177,-5.178 a 2.5,2.5 0 0 0 -0.471,-0.47 2.5,2.5 0 0 0 -0.008,-0.008 2.5,2.5 0 0 0 -1.508,-0.506 z m -2.5,11.5 -6.5,11.258 -1.5,2.597 a 3,3 0 0 0 4.098,-1.097 l 6.385,-11.059 4.869,10.443 1.27,2.721 a 3,3 0 0 0 1.45,-3.988 l -5.072,-10.875 z"
     transform="translate(-315.326,-25.105)" />
</svg>
