<svg xmlns="http://www.w3.org/2000/svg" viewBox="0 0 100 89">
  <g transform="matrix(2.0661328,0,0,-2.0661328,-589.99455,1055.1087)">
    <path
       fill="#ccc95a"
       d="m 321.7594,509.1295 0.0589,-0.1311 0.137,-0.3634 0.3489,-0.9237 0.3015,-0.7231 0.3754,-1.0026 0.121,-0.3861 0.0555,-0.2671 0.5332,-1.0986 0.3279,-0.9075 0.2438,-0.7375 0.3454,-1.0772 0.1472,-0.375 -0.2043,-0.2063 -0.3993,-0.7244 -0.368,-2.2665 -0.5906,-1.7818 -0.0343,-1.1044 -0.092,-0.4008 -0.2943,-0.5688 -0.3626,-0.5601 -0.689,0.2621 -1.1349,0.9282 -0.6704,0.8954 -0.7053,0.5713 -0.6715,0.7648 -0.1916,0.5578 -0.003,0.3606 -0.3061,0.8736 -0.2197,0.4112 -0.8109,0.918 -0.2377,0.4945 -0.1773,0.2157 -0.1805,0.3113 -0.3119,1.2083 -0.3278,0.7638 -0.3478,-0.2196 0.0692,-0.3232 -0.2987,-0.4541 -0.1758,-0.5242 0.1521,-0.4224 0.6559,-0.6352 0.1361,-0.2801 0.1635,-0.6105 -0.005,-0.8345 0.1104,-0.2811 0.4974,-0.6096 0.1818,-0.3641 0.112,-0.3153 0.1679,-0.2836 0.4941,-0.5291 0.7197,-1.0115 0.6775,-0.6763 0.4849,-0.3221 0.2121,-0.3297 0.0704,-0.8643 -0.0231,-0.4134 0.4414,-0.7654 0.1671,-0.3888 0.4167,-0.3089 0.1971,-0.3604 0.1891,-0.5904 0.313,-1.7523 0.3683,-0.4213 1.1753,-2.2785 0.9802,-1.433 0.4892,-1.0768 0.7366,-1.3052 1.4634,-2.8684 0.8437,-0.8684 0.3424,-0.4925 0.6023,-0.3649 0.6591,-0.5352 -0.6095,0.0283 -0.1516,-0.0406 -0.2083,-0.1053 -0.0893,-0.3459 -0.0322,-0.281 0.1304,-1.4756 0.1963,-0.7456 0.5926,-1.4027 0.4175,-0.4101 0.2064,-0.2678 0.2807,-0.1896 1.2961,-0.4268 0.7902,-0.9926 1.7357,-1.2145 0.181,-0.3503 0.007,-0.0833 -1.3288,-0.0688 -1.3297,-0.0654 -1.3308,-0.0621 -1.3313,-0.0587 -1.332,-0.0554 -1.333,-0.052 -1.3334,-0.0487 -1.334,-0.0453 -1.3346,-0.042 -1.3351,-0.0386 -1.3358,-0.0353 -1.3361,-0.0319 -1.3364,-0.0286 -1.337,-0.0252 -1.3371,-0.0219 -1.3373,-0.0185 -0.7631,-0.009 0.1265,0.391 0.0775,0.2779 -0.0909,0.1908 -0.2609,0.0451 -0.1694,-0.0624 -0.3917,-0.8216 -0.2098,-0.0344 -0.4747,-0.004 -1.5579,-0.0105 -1.5579,-0.006 -1.5578,-10e-4 -1.558,0.003 -1.5579,0.008 -1.5576,0.0122 -1.5576,0.0168 -1.5572,0.0215 -1.5567,0.026 -1.5565,0.0304 -1.556,0.035 -1.5552,0.0396 -1.5548,0.0441 -1.5541,0.0487 -1.5531,0.0533 -1.5524,0.0577 0.0325,0.9848 0.0328,0.985 0.0332,0.9853 0.0334,0.9854 0.0338,0.9857 0.0341,0.9859 0.0344,0.9861 0.0347,0.9862 0.035,0.9863 0.0354,0.9866 0.0356,0.9866 0.0359,0.9867 0.0363,0.9867 0.0366,0.9868 0.0368,0.9869 0.0372,0.9869 0.0375,0.987 0.0378,0.9869 0.038,0.9869 0.0384,0.9869 0.0387,0.9869 0.039,0.9868 0.0393,0.9869 0.0396,0.9867 0.0399,0.9865 0.0402,0.9866 0.0405,0.9863 0.0408,0.9862 0.0411,0.986 0.0414,0.9858 0.0417,0.9857 0.042,0.9854 -0.0247,0.1854 -0.1835,0.6771 -0.1542,0.8583 -0.1629,1.054 -0.0118,0.3401 -0.2997,1.0902 -0.0177,0.306 0.0979,0.2135 0.613,0.8839 0.1913,0.4335 0.1686,0.5222 0.0666,0.4275 -0.1376,0.6629 -0.1677,0.5976 -0.0382,0.6063 7e-4,0.5946 0.308,0.394 0.3638,0.3652 0.1397,0.2275 0.2161,0.2536 0.1491,0.1174 0.2565,-0.5403 0.5819,-0.1131 1.9282,0.4091 2.0925,-0.5379 1.1598,-0.2127 1.786,-0.4461 1.079,-0.7452 0.299,-0.0972 0.7891,5e-4 0.5093,-0.4356 2.0577,-0.2336 1.0952,-0.4835 0.6217,-0.3819 0.374,-0.1188 0.3323,0.0166 0.4497,0.1392 0.5663,0.2625 0.6167,0.3661 1.2754,0.9437 0.45,0.1661 0.2938,-0.0426 0.3575,0.0124 0.1482,0.2563 0.1875,0.1765 0.1173,0.2003 0.192,0.2409 0.6596,0.0697 1.3188,0.4184 -0.1459,-0.1957 -1.2015,-0.4681 0.5163,-0.0549 0.5275,0.1609 0.601,0.1046 0.1074,0.1968 0.0755,0.3683 0.1153,0.0524 0.4168,-0.0652 1.2455,-0.5534 0.3084,-0.007 0.8672,0.3203 0.1852,0.0686 0.2853,-0.1677 0.6575,-0.6949 -0.2253,0.0113 -0.7007,0.5936 -0.056,-0.3019 -0.3846,-0.5359 0.4958,-0.2225 0.4017,-0.0801 0.22,-0.2925 0.1411,-0.2613 0.3921,0.1213 0.2761,0.3634 -0.151,0.1974 -0.1043,0.205 0.1291,0.007 0.2776,-0.1653 0.8019,-0.6658 0.2685,-0.1347 0.3051,0.0292 0.6344,0.2051 0.178,-0.0259 0.8514,0.2703 0.1063,-0.181 0.1467,-0.1793 0.684,0.2208 1.0844,0.0267 0.879,0.247 1.0068,0.5702 0.079,0.0844 v 0" />
  </g>
</svg>
