<svg xmlns="http://www.w3.org/2000/svg" viewBox="0 0 41 134">
    <defs>
        <linearGradient id="cola" x1="0" y1="0" x2="0" y2="134" gradientUnits="userSpaceOnUse">
            <stop stop-color="#f40009" offset="0"/>
            <stop stop-color="#f40009" offset=".09"/>
            <stop stop-color="gray" offset=".09"/>
            <stop stop-color="gray" offset=".29"/>
            <stop stop-color="#000" offset=".3"/>
            <stop stop-color="#000" offset=".35"/>
            <stop stop-color="#f40009" offset=".35"/>
            <stop stop-color="#f40009" offset=".54"/>
            <stop stop-color="#000" offset=".54"/>
            <stop stop-color="#000" offset="1"/>
        </linearGradient>
    </defs>

    <path fill="url(#cola)" d="M20.5 0c-7.17 0-8.77 3.526-6.5 12C7.734 35.385-1.51 36.633 1 46v26c-2.81 10.484 5.355 22.016 0 42-2.313 8.631.974 12.76 4 18 1.842 3.19 9.852 0 15.5 0s13.658 3.19 15.5 0c3.026-5.24 6.313-9.369 4-18-5.355-19.984 2.81-31.516 0-42V46c2.51-9.367-6.734-10.615-13-34 2.27-8.474.67-12-6.5-12z"/>
</svg>
