<svg xmlns="http://www.w3.org/2000/svg" viewBox="0 0 81 93">
    <path
       stroke="#d0b000" stroke-width="5" fill="none"
       d="m 91.26418,49.645336 c 18.96067,17.307943 21.27151,41.713291 14.5666,66.738784"
       transform="translate(-63.241946,-24.49801)" />
    <path
       fill="#d0b000"
       transform="matrix(0.83306127,-0.93448438,0.70086325,0.62479592,-78.743482,20.406751)"
       d="m 62.011037,74.413246 c 0,8.82315 -3.576288,15.975725 -7.987863,15.975725 -4.411574,-10e-7 -7.987862,-7.152576 -7.987862,-15.975725 0,-8.823149 4.925938,-11.037883 7.987862,-26.274229 3.239976,16.122344 7.987863,17.451079 7.987863,26.274229 z" />
    <path
       fill="#d0b000"
       transform="matrix(0.16235323,-1.2413274,0.93099546,0.12176493,-51.742425,102.17365)"
       d="m 62.011037,74.413246 c 0,8.82315 -3.576288,15.975725 -7.987863,15.975725 -4.411574,-10e-7 -7.987862,-7.152576 -7.987862,-15.975725 0,-8.823149 4.925938,-11.037883 7.987862,-26.274229 3.239976,16.122344 7.987863,17.451079 7.987863,26.274229 z" />
    <path
       fill="#d0b000"
       transform="matrix(0,-1.2518994,0.93892452,0,-39.15532,134.25489)"
       d="m 62.011037,74.413246 c 0,8.82315 -3.576288,15.975725 -7.987863,15.975725 -4.411574,-10e-7 -7.987862,-7.152576 -7.987862,-15.975725 0,-8.823149 4.925938,-11.037883 7.987862,-26.274229 3.239976,16.122344 7.987863,17.451079 7.987863,26.274229 z" />
    <path
       fill="#d0b000"
       transform="matrix(1.0889794,0.61755648,-0.46316735,0.81673451,20.207685,-72.708463)"
       d="m 62.011037,74.413246 c 0,8.82315 -3.576288,15.975725 -7.987863,15.975725 -4.411574,-10e-7 -7.987862,-7.152576 -7.987862,-15.975725 0,-8.823149 4.925938,-11.037883 7.987862,-26.274229 3.239976,16.122344 7.987863,17.451079 7.987863,26.274229 z" />
    <path
       fill="#d0b000"
       transform="matrix(0.92301804,0.84574809,-0.63431104,0.6922635,52.171371,-53.108456)"
       d="m 62.011037,74.413246 c 0,8.82315 -3.576288,15.975725 -7.987863,15.975725 -4.411574,-10e-7 -7.987862,-7.152576 -7.987862,-15.975725 0,-8.823149 4.925938,-11.037883 7.987862,-26.274229 3.239976,16.122344 7.987863,17.451079 7.987863,26.274229 z" />
    <path
       fill="#d0b000"
       transform="matrix(0.56353904,1.117889,-0.83841674,0.42265426,90.214881,-15.815929)"
       d="m 62.011037,74.413246 c 0,8.82315 -3.576288,15.975725 -7.987863,15.975725 -4.411574,-10e-7 -7.987862,-7.152576 -7.987862,-15.975725 0,-8.823149 4.925938,-11.037883 7.987862,-26.274229 3.239976,16.122344 7.987863,17.451079 7.987863,26.274229 z" />
</svg>
