<svg xmlns="http://www.w3.org/2000/svg" viewBox="0 0 120 120">
    <g transform="translate(-45.26 -13.273)">
        <ellipse fill="#e0e0e0" cx="110.201" cy="84.778" rx="31.944" ry="31.06" transform="matrix(1.8783 0 0 1.93177 -101.729 -90.5)"/>
        <path fill="#1c1c1c" d="m126.891 19.398-14.096 6.423-27.81-1.406c.108-2.45.016-4.649 1.017-7.377 7.696-1.739 15.385-3.153 24.097-2.628 6.1 1.286 12.308 2.49 16.792 4.988z"/>
        <path fill="#1c1c1c" d="M144.238 92.042c-9.724 3.3-18.334 4.93-26.904 6.5L102.29 71.725l20.571-22.342c8.388 3.951 17.041 7.238 24.648 13.139-.204 9.84-1.401 19.68-3.271 29.52zM61.146 91.768c-4.65-3.17-9.465-6.151-12.709-10.928-.732-8.8-.208-17.713 2.298-26.807 4.585-3.688 9.244-7.273 14.986-9.368l7.707 24.273zM102.817 118.827l11.682 10.964c-4.487 1.823-10.305 2.38-16.872 2.227-10.766-2.262-16.716-5.058-21.927-7.937-.417-2.549-.374-5.443.457-8.928z"/>
    </g>
</svg>
