<svg xmlns="http://www.w3.org/2000/svg" viewBox="0 0 188 100">
    <path fill="#f1a008" d="M.354 44.113h61.094v53.515H.354z"/>
    <ellipse fill="#f8aca4" cx="148.826" cy="102.791" rx="24.174" ry="22.072" transform="matrix(1.45741 0 0 1.28916 -64.132 -60.969)"/>
    <ellipse fill="#fdd4c6" cx="148.826" cy="102.791" rx="24.174" ry="22.072" transform="matrix(1.45009 0 0 1.2405 -63.13 -57.041)"/>
    <path fill="#feeab3" d="M.354 44.113h61.094v52.52H.354z"/>
    <path fill="#f1a008" d="M0 29.504h61.094V83.02H0z"/>
    <path fill="#feeab3" d="M0 29.504h61.094v52.52H0z"/>
    <path fill="#f1a008" d="M.885 18.064H61.98v53.515H.885z"/>
    <path fill="#feeab3" d="M.885 18.064H61.98v52.52H.885z"/>
    <path fill="#f1a008" d="M.177 2.575h61.094v53.516H.177z"/>
    <path fill="#feeab3" d="M.177 2.575h61.094v52.52H.177z"/>
    <ellipse style="font-variation-settings:normal;vector-effect:none;fill:#7b322a;fill-opacity:1;stroke:none;stroke-width:5.49054;stroke-linecap:butt;stroke-linejoin:miter;stroke-miterlimit:4;stroke-dasharray:none;stroke-dashoffset:0;stroke-opacity:1;-inkscape-stroke:none;paint-order:markers stroke fill;stop-color:#000" cx="148.826" cy="102.791" rx="24.174" ry="22.072" transform="matrix(.96995 0 0 .85499 -53.535 -10.365)"/>
    <ellipse fill="#ac4c40" cx="148.826" cy="102.791" rx="24.174" ry="22.072" transform="matrix(.96171 0 0 .82272 -52.331 -7.76)"/>
    <ellipse fill="#f8aca4" cx="148.826" cy="102.791" rx="24.174" ry="22.072" transform="matrix(1.45741 0 0 1.28916 -64.663 -72.233)"/>
    <ellipse fill="#fdd4c6" cx="148.826" cy="102.791" rx="24.174" ry="22.072" transform="matrix(1.45009 0 0 1.2405 -63.662 -68.305)"/>
    <ellipse fill="#f8aca4" cx="148.826" cy="102.791" rx="24.174" ry="22.072" transform="matrix(1.45741 0 0 1.28916 -64.486 -86.666)"/>
    <ellipse fill="#fdd4c6" cx="148.826" cy="102.791" rx="24.174" ry="22.072" transform="matrix(1.45009 0 0 1.2405 -63.485 -82.738)"/>
    <ellipse fill="#f8aca4" cx="148.826" cy="102.791" rx="24.174" ry="22.072" transform="matrix(1.45741 0 0 1.28916 -64.31 -103.386)"/>
    <ellipse fill="#fdd4c6" cx="148.826" cy="102.791" rx="24.174" ry="22.072" transform="matrix(1.45009 0 0 1.2405 -63.308 -99.458)"/>
    <ellipse style="font-variation-settings:normal;vector-effect:none;fill:#7b322a;fill-opacity:1;stroke:none;stroke-width:5.49054;stroke-linecap:butt;stroke-linejoin:miter;stroke-miterlimit:4;stroke-dasharray:none;stroke-dashoffset:0;stroke-opacity:1;-inkscape-stroke:none;paint-order:markers stroke fill;stop-color:#000" cx="148.826" cy="102.791" rx="24.174" ry="22.072" transform="matrix(.96995 0 0 .85499 -53.358 -23.39)"/>
    <ellipse fill="#ac4c40" cx="148.826" cy="102.791" rx="24.174" ry="22.072" transform="matrix(.96171 0 0 .82272 -52.154 -20.785)"/>
    <ellipse style="font-variation-settings:normal;vector-effect:none;fill:#7b322a;fill-opacity:1;stroke:none;stroke-width:5.49054;stroke-linecap:butt;stroke-linejoin:miter;stroke-miterlimit:4;stroke-dasharray:none;stroke-dashoffset:0;stroke-opacity:1;-inkscape-stroke:none;paint-order:markers stroke fill;stop-color:#000" cx="148.826" cy="102.791" rx="24.174" ry="22.072" transform="matrix(.96995 0 0 .85499 -53.837 -37.278)"/>
    <ellipse fill="#ac4c40" cx="148.826" cy="102.791" rx="24.174" ry="22.072" transform="matrix(.96171 0 0 .82272 -52.633 -34.673)"/>
    <ellipse style="font-variation-settings:normal;vector-effect:none;fill:#7b322a;fill-opacity:1;stroke:none;stroke-width:5.49054;stroke-linecap:butt;stroke-linejoin:miter;stroke-miterlimit:4;stroke-dasharray:none;stroke-dashoffset:0;stroke-opacity:1;-inkscape-stroke:none;paint-order:markers stroke fill;stop-color:#000" cx="148.826" cy="102.791" rx="24.174" ry="22.072" transform="matrix(.96995 0 0 .85499 -54.088 -51.59)"/>
    <ellipse fill="#ac4c40" cx="148.826" cy="102.791" rx="24.174" ry="22.072" transform="matrix(.96171 0 0 .82272 -52.884 -48.986)"/>
    <ellipse style="font-variation-settings:normal;vector-effect:none;fill:#7b322a;fill-opacity:1;stroke:none;stroke-width:5.49054;stroke-linecap:butt;stroke-linejoin:miter;stroke-miterlimit:4;stroke-dasharray:none;stroke-dashoffset:0;stroke-opacity:1;-inkscape-stroke:none;paint-order:markers stroke fill;stop-color:#000" cx="148.826" cy="102.791" rx="24.174" ry="22.072" transform="matrix(.96995 0 0 .85499 -54.088 -69.014)"/>
    <ellipse fill="#ac4c40" cx="148.826" cy="102.791" rx="24.174" ry="22.072" transform="matrix(.96171 0 0 .82272 -52.884 -66.41)"/>
</svg>
