<svg xmlns="http://www.w3.org/2000/svg" viewBox="0 0 160 56">
    <g transform="translate(-20.038 -50.702)" fill="#3d2a62">
        <path d="M111.93 50.707c-16.235.17-33.915 4.551-52.3 17.893-16.247.364-26.648 6.34-38.17 11.238-4.652 16.006 4.04 7.022-1.001 15.549 4.93.963 9.667 1.251 15.121 4.05-5.71-27.552 31.814-29.677 29.202-.976l67.226.512c-4.628-28.034 32.026-27.362 30.98-2.32l13.815-.491c4.376-13.277 4.48-10.666-.72-23.68 1.98 0 1.53-3.568 1.53-9.516-15.587-1.126-38.627-12.543-65.684-12.259zm-3.728 2.45a19.08 19.08 0 0 1 1.897.063l-4.038 13.75-33.2 1.215c5.317-8.205 25.174-14.897 35.34-15.028zm5.355.063c16.61.01 27.355 3.111 34.926 7.888-7.288 4.703-14.138 4.25-37.14 5.309z"/>
        <circle cx="51.08" cy="92.544" r="4.099" transform="matrix(3.07769 0 0 3.07769 -107.47 -191.51)"/>
        <circle cx="51.08" cy="92.544" r="4.099" transform="matrix(3.07769 0 0 3.07769 -10.426 -191.51)"/>
    </g>
</svg>
