<svg xmlns="http://www.w3.org/2000/svg" viewBox="0 0 100 150">
    <path style="fill:#000;fill-opacity:1;stroke-linecap:round;paint-order:markers stroke fill;stop-color:#000" d="m20 117 7 2c-7.5 28-21 22.5-20 19 1-4.5 10 8 13-21z"/>
    <path style="fill:#c07050;fill-opacity:1;stroke-linecap:round;paint-order:markers stroke fill;stop-color:#000" d="M23.5 89.5 50 90l4 26-20 10-1-6c-21 0-10-3-13-13.5-9-2.5 3.5-8 3.5-17z"/>
    <path style="fill:#fff;fill-opacity:1;stroke:#000;stroke-width:1;stroke-linecap:round;stroke-dasharray:none;stroke-opacity:1;paint-order:markers fill stroke;stop-color:#000" d="m39 99-8-1c-2.5 1.5-5.5 1.5-8 0 2.75-4.75 7.25-1.25 16 1z"/>
    <path style="fill:none;stroke:#c04020;stroke-width:1;stroke-linecap:round;stroke-linejoin:miter;stroke-dasharray:none;stroke-opacity:1" d="M27.5 64C1 37.5-.5 14 10 14c8 0 6.5 10.5 1 10.5-5 0-5.5-7.5-1-7.5 5 0 4 5 1 5-2.5 0-1.5-4 0-2.5"/>
    <path style="fill:#fffff3;fill-opacity:1;stroke-width:.1;stroke-linecap:round;paint-order:markers stroke fill;stop-color:#000" d="M54 13c4.5-8 14-9.5 14 5-6.5 6.5-6 23-6 38L47 82 27 68c10.5-39.5 30.5-41 27-55z"/>
    <path style="fill:#c04020;fill-opacity:1;stroke-width:.1;stroke-linecap:round;paint-order:markers stroke fill;stop-color:#000" d="M18 67c36.5 3.5 44.5 7.5 64-65.5l2.5.5L54 116c-4.5-9 2-20.5-14-20.5l-16.5-6z"/>
    <ellipse fill="#000" cx="27" cy="97.5" rx="2.25" ry="1.75"/>
    <path style="fill:none;stroke:#000;stroke-width:1px;stroke-linecap:butt;stroke-linejoin:miter;stroke-opacity:1" d="M24 93c5.653-3.264 9.532 2.349 15 4"/>
</svg>
