<svg xmlns="http://www.w3.org/2000/svg" viewBox="0 0 100 100">
    <style>
        path {
            fill: #b0a050;
            fill-opacity: 0.6;
            stroke: #404030;
            stroke-linejoin: round;
            stroke-width: 2;
        }
    </style>

    <circle fill="#ffa030" cx="50" cy="45" r="20" />
    <path d="M40 23c-10-1-20 7-20 17 0 14 8 12 30 50 22-38 30-36 30-50S60 17 50 27c-3-3-6-4-10-4z" />
    <path d="M43 24c-7 0-15 6-15 16 0 14 13 24 22 50 9-26 22-36 22-50S57 20 50 27c-2-2-5-3-7-3z" />
    <path d="M50 27c-5 0-10 3-10 17s3 22 10 46c7-24 10-32 10-46s-5-17-10-17z" />
    <path d="M50 25.5c0-15 10-20 20-15" style="fill:none" />
</svg>
