<svg xmlns="http://www.w3.org/2000/svg" viewBox="0 0 248 100">
    <style>
        rect:nth-of-type(7n + 1) {
            fill: #d090c0;
        }
        rect:nth-of-type(7n + 2) {
            fill: #5080c0;
        }
        rect:nth-of-type(7n + 3) {
            fill: #ffd000;
        }
        rect:nth-of-type(7n + 4) {
            fill: #ff4050;
        }
        rect:nth-of-type(7n + 5) {
            fill: #fff0e0;
        }
        rect:nth-of-type(7n + 6) {
            fill: #309050;
        }
        rect:nth-of-type(7n + 7) {
            fill: #ff9030;
        }
        circle {
            fill: silver;
        }
    </style>

    <rect x="1" y="0" width="18" height="100" />
    <rect x="20" y="2" width="18" height="96" />
    <rect x="39" y="4" width="18" height="92" />
    <rect x="58" y="6" width="18" height="88" />
    <rect x="77" y="8" width="18" height="84" />
    <rect x="96" y="10" width="18" height="80" />
    <rect x="115" y="12" width="18" height="76" />
    <rect x="134" y="14" width="18" height="72" />
    <rect x="153" y="16" width="18" height="68" />
    <rect x="172" y="18" width="18" height="64" />
    <rect x="191" y="20" width="18" height="60" />
    <rect x="210" y="22" width="18" height="56" />
    <rect x="229" y="24" width="18" height="52" />

    <g id="holes3">
        <g id="holes2">
            <g id="holes">
                <circle r="4" cx="9.5" cy="32" />
                <circle r="4" cx="9.5" cy="68" />
            </g>
            <use href="#holes" x="19.5" />
        </g>
        <use href="#holes2" x="38" />
    </g>
    <use href="#holes3" x="76" />
    <use href="#holes3" x="152" />
    <use href="#holes" x="229" />
</svg>