<svg width="200" height="150" xmlns="http://www.w3.org/2000/svg" viewBox="0 0 200 150">
    <style>
        .line {
            fill: none;
            stroke:#b8bcbe;
            stroke-width:3;
            stroke-linecap:round;
        }
    </style>

    <path fill="#494748" d="M61.144 20.85a4.34 4.34 0 0 0-1.445.38c-6.392 3.8-9.871 10.987-10.322 18.514-.021.307-.039.613-.045.922-.013.464-.007.928.004 1.393.101 4.463 1.256 8.933 3.513 12.793 3.712 8.13 9.342 15.482 11.809 19.14.542 4.72.22 8.86-.418 12.588-4.448 7.488-5.095 13.538-3.494 18.303.171 3.138 1.354 6.075 4.543 9.049 10.793 8.844 22.243 12.943 33.15 12.13 10.907.812 22.358-3.287 33.15-12.13 3.189-2.974 4.37-5.91 4.542-9.05 1.6-4.765.955-10.816-3.495-18.306-.637-3.727-.958-7.866-.416-12.584 2.467-3.658 8.098-11.01 11.809-19.14 2.257-3.86 3.41-8.33 3.512-12.793.01-.455.017-.91.006-1.364a19.916 19.916 0 0 0-.051-1.007c-.465-7.507-3.94-14.668-10.317-18.458-7.579-3.444-16.772 16.429-22.976 26.39-5.689-2.205-10.76-3.173-15.764-3.095-5.004-.079-10.076.89-15.765 3.094-5.815-9.335-14.253-27.375-21.53-26.77z" transform="translate(1.561)"/>
    <path fill="#b8bcbe" d="M389.292 42.748c1.063 7.697 4.708 20.913 18.886 22.785l2.865-3.574c-4.384-4.84-6.236-9.898-3.84-15.59 2.269-5.243 7.699-8.23.106-18.687-8.88-13.629-18.802 7.225-18.017 15.066z" transform="translate(-337.292)"/>
    <path fill="#b8bcbe" d="M389.292 42.748c1.063 7.697 4.708 20.913 18.886 22.785l2.865-3.574c-4.384-4.84-6.236-9.898-3.84-15.59 2.269-5.243 7.699-8.23.106-18.687-8.88-13.629-18.802 7.225-18.017 15.066z" transform="matrix(-1 0 0 1 537.292 0)"/>
    <ellipse fill="#000" cx="80.116" cy="90.271" rx="4.013" ry="4.209" transform="matrix(1.24587 0 0 1.18799 -19.815 -17.24)"/>
    <path class="line" d="M130.95 96.764c14.478-3.681 27.404-3.298 40.43 0" transform="matrix(-.98937 0 0 .98937 198.559 2.765)"/>
    <path class="line" d="M130.95 96.764c14.478-3.681 27.404-3.298 40.43 0" transform="scale(-.98937 .98937) rotate(15 -1.417 -661.224)"/>
    <path class="line" d="M130.95 96.764c14.478-3.681 27.404-3.298 40.43 0" transform="scale(-.98937 .98937) rotate(30 3.223 -270.396)"/>
    <path class="line" d="M130.95 96.764c14.478-3.681 27.404-3.298 40.43 0" transform="translate(1.441 2.765) scale(.98937)"/>
    <path class="line" d="M130.95 96.764c14.478-3.681 27.404-3.298 40.43 0" transform="rotate(15 98.597 105.38) scale(.98937)"/>
    <path class="line" d="M130.95 96.764c14.478-3.681 27.404-3.298 40.43 0" transform="rotate(30 103.189 105.683) scale(.98937)"/>
    <ellipse fill="#000" cx="80.116" cy="90.271" rx="4.013" ry="4.209" transform="matrix(1.24587 0 0 1.18799 20.185 -17.24)"/>
    <path fill="black" d="M77.398 88.998c-.657.008-1.17.29-1.295 1.272-.235 1.842 1.805 3.494 3.21 4.028v7.21c-2.809-.67-6.684-4.37-7.204-2.485-.571 2.068 5.591 7.24 7.988 7.24 2.398 0 8.562-5.172 7.99-7.24-.517-1.877-4.362 1.785-7.168 2.48v-7.205c1.406-.534 3.446-2.186 3.21-4.028-.286-2.245-2.602-.842-4.013-.842-.793 0-1.874-.442-2.718-.43z" transform="matrix(1.24587 0 0 .594 .185 57.493)"/>
</svg>
